<svg width="192" height="198" viewBox="0 0 192 198" fill="none" xmlns="http://www.w3.org/2000/svg">
<path d="M96 25.9065C55.3846 25.9065 22.1538 59.215 22.1538 99.9252C22.1538 140.636 55.1963 173.944 96 173.944C136.804 173.944 169.846 140.824 169.846 99.9252C169.846 59.215 136.804 25.9065 96 25.9065ZM116.308 118.619C116.495 119.175 116.495 119.732 116.12 120.1C115.752 120.469 115.565 120.469 115.197 120.469C115.01 120.469 114.829 120.469 114.642 120.281L103.933 115.286L97.1106 152.664C97.1106 152.852 96.9231 153.033 96.9231 153.221C96.7356 153.221 96.7356 153.409 96.7356 153.409C96.5481 153.596 96.1803 153.777 95.8125 153.777C95.4447 153.777 95.2572 153.589 94.8894 153.409L94.7019 153.221C94.5216 153.033 94.5216 152.852 94.5216 152.664L87.8725 115.286L77.1706 120.281C76.9831 120.469 76.8028 120.469 76.6153 120.469C76.2475 120.469 75.8797 120.281 75.6922 120.1C75.3244 119.732 75.1369 119.175 75.3244 118.619L80.3076 107.884L43.0171 101.22C42.8296 101.22 42.6493 101.032 42.4618 100.851C42.2743 100.851 42.2743 100.851 42.2743 100.663C42.0868 100.475 41.9065 100.107 41.9065 99.738V99.5501C41.9065 99.1814 42.094 98.9935 42.2743 98.6248C42.4618 98.4369 42.4618 98.4369 42.6421 98.4369C42.8296 98.249 42.8296 98.249 43.0099 98.0683L80.3004 91.4036L75.5046 81.4213C75.3171 80.8647 75.3171 80.3081 75.8724 79.7587C76.2402 79.3901 76.7955 79.3901 77.3508 79.5708L87.8724 84.5656L94.7088 47.188C94.7088 47.0001 94.8963 47.0001 94.8963 46.8193C95.0766 46.4507 95.4444 46.0748 95.9997 46.0748C96.555 46.0748 96.9228 46.4435 97.1103 46.8121C97.1103 47.0001 97.2978 47.0001 97.2978 47.1808L104.127 84.5584L114.829 79.5708C115.197 79.3829 115.94 79.3829 116.307 79.7587C116.675 80.1274 116.675 80.8647 116.495 81.4213L111.512 91.9674L148.802 98.6321L149.17 99.0007C149.358 99.0007 149.358 99.0007 149.538 99.1887C149.725 99.3766 149.906 99.7453 149.906 100.114V100.302C149.906 100.67 149.718 100.858 149.538 101.227L149.35 101.415C149.163 101.603 148.983 101.784 148.795 101.784L111.505 108.448L116.308 118.619ZM136.983 93.2617C136.795 93.6303 136.427 93.6304 136.06 93.6304H135.872L130.153 92.5244C129.598 92.5244 129.23 92.1558 129.043 91.5992C125.906 79.3831 116.487 69.5823 104.12 66.6179C103.564 66.4299 103.197 66.0613 103.009 65.5047L102.086 59.7653C101.899 59.3966 102.274 58.84 102.454 58.6521C102.641 58.2835 103.009 58.2835 103.564 58.2835C120.555 61.435 134.033 74.9449 137.351 92.1563C137.538 92.5249 137.351 92.893 136.983 93.2617ZM55.5711 48.8505C56.6816 47.9253 58.1527 47 59.6311 46.0748H59.8186V45.8868C62.5879 43.8484 65.9124 41.9979 69.6047 40.5235C69.785 40.3427 69.9653 40.3427 70.1528 40.1548C70.3403 40.1548 70.5206 40.1548 70.5206 39.9669H70.7081C70.8956 39.7789 70.8956 39.7789 71.0759 39.7789C71.0759 39.7789 71.2634 39.7789 71.2634 39.591C72.1865 39.2224 73.1095 38.8537 73.845 38.4778C74.9556 38.1092 76.2465 37.5526 76.982 37.5526C79.1959 36.8225 81.0421 36.2732 83.0758 35.8973L83.4436 35.7094C84.922 35.7166 86.7682 35.5287 88.6143 35.16C88.8018 34.9721 88.9821 34.9721 89.1696 34.9721H89.3571H89.5446C91.3907 34.7841 93.0493 34.7841 94.8955 34.6034H95.9989C98.2128 34.6034 100.427 34.7914 102.273 34.9721C104.674 35.16 106.708 35.5287 108.922 35.8973C111.136 36.266 113.17 36.8225 115.196 37.5598C116.855 37.9285 118.52 38.673 120.734 39.5983H121.102V39.7862C121.29 39.7862 121.29 39.7862 121.47 39.9742C125.537 41.6367 129.042 43.4871 132.186 45.8942C133.845 46.8194 135.143 47.7447 136.246 48.6699C136.614 49.0385 136.614 49.2265 136.614 49.5951C136.802 49.9638 136.427 50.3324 136.246 50.5204L132.922 54.5899V54.7778C132.554 55.1465 132.367 55.3344 131.811 55.3344C131.443 55.3344 131.256 55.1465 131.076 54.9658V54.7778C129.965 53.8526 128.674 53.1153 127.571 52.1902C126.28 51.2649 124.802 50.3397 123.143 49.6025C121.665 48.6772 120.374 48.1206 119.083 47.564C118.16 47.1953 117.424 47.0074 116.501 46.6387C115.211 46.0822 113.732 45.5256 112.441 45.1569C111.15 44.7883 109.86 44.4196 108.561 44.2317C108.006 44.0438 107.451 43.863 106.903 43.863C105.057 43.4944 103.578 43.3065 101.92 42.9378C100.073 42.7499 98.0398 42.7499 96.0134 42.7499C94.1673 42.7499 92.5087 42.9378 90.6625 42.9378H90.2948C88.6361 43.1257 86.9702 43.3065 85.3116 43.6751C84.7563 43.863 84.201 43.863 83.653 44.0438C82.5424 44.2317 81.4391 44.4124 80.516 44.7811C80.516 44.7811 80.3285 44.7811 80.3285 44.969H80.141C79.9535 44.969 79.7732 44.969 79.7732 45.1569C78.2948 45.5256 77.004 46.0822 75.5256 46.6387C74.9703 46.8267 74.6025 47.0074 74.0472 47.1953C73.6794 47.3833 73.3116 47.564 72.9366 47.7519C71.6458 48.3085 70.355 49.0458 69.0567 49.6024C67.5784 50.5276 65.9198 51.2649 64.4414 52.3781C63.3308 53.1154 62.0399 54.0406 60.7491 55.1538C60.5543 55.3273 60.1866 55.5152 59.8116 55.5152C59.8116 55.5152 59.8116 55.3273 59.6241 55.3273C59.2563 55.3273 59.0688 55.1393 58.701 54.9586L55.3836 50.8891C55.0158 50.3325 55.0158 49.4071 55.5711 48.8505ZM88.2462 58.2908C88.6139 58.2908 89.1692 58.4788 89.3567 58.6595C89.7245 58.8474 89.7245 59.3968 89.7245 59.7726L88.8014 65.5121C88.6139 66.0686 88.2462 66.4373 87.8784 66.6252C75.5106 69.5889 65.9128 79.2099 62.9553 91.6065C62.7678 92.1631 62.4 92.5318 61.8447 92.5318L56.1187 93.6449H55.9312C55.5634 93.6449 55.1956 93.457 55.0081 93.2763C54.6403 92.9076 54.6403 92.539 54.6403 92.1631C57.5971 75.1331 71.2632 61.4366 88.2462 58.2908ZM51.1348 136.747C51.1348 136.935 51.1348 137.116 50.9473 137.304L46.8872 140.636C46.5194 140.824 46.3319 140.824 45.9641 140.824H45.7766C45.4088 140.824 45.2214 140.636 44.8536 140.455C43.7502 138.973 42.827 137.491 41.7238 136.01C40.6132 134.347 39.5099 132.497 38.767 131.196C37.4761 128.788 36.7333 127.126 35.9977 125.456C35.4425 123.974 34.8872 122.492 34.3391 121.018C33.9713 120.461 33.7838 119.905 33.7838 119.168C33.5963 118.98 33.5963 118.799 33.416 118.242C33.416 118.054 33.2285 117.686 33.2285 117.317V117.129C32.6732 115.647 32.3054 113.985 32.1179 112.315C31.7502 110.833 31.5627 109.171 31.3824 107.501C31.0146 105.094 31.0146 102.687 31.0146 99.9109C31.0146 97.1352 31.2021 94.5475 31.3824 92.509C31.5699 90.8465 31.7502 89.1767 32.1179 87.6949V87.5069C32.3054 86.213 32.6732 84.9192 33.041 83.4374C33.2285 83.0687 33.2285 82.5121 33.4088 82.1435C33.5963 81.5869 33.7766 81.0303 33.9641 80.293C34.1516 80.1051 34.1516 79.9244 34.1516 79.7365C34.3391 78.9992 34.7069 78.2546 34.8872 77.5174C35.255 76.5921 35.6228 75.6669 35.9977 74.7417H36.1852C36.9208 72.7032 38.0314 70.6721 38.7669 69.0023C39.69 67.3397 40.6131 66.0385 41.3486 64.5641L41.5361 64.1954C41.7236 64.0075 41.7236 64.0075 41.9039 63.8268C42.0913 63.6389 42.0913 63.4581 42.2716 63.4581C42.6466 63.1039 42.8269 62.3594 43.3822 61.8028C43.9375 60.8776 44.3053 60.321 44.8606 59.5838C45.2284 59.2151 45.4159 59.2151 45.7837 59.0272C46.3389 59.2151 46.5192 59.2151 46.8942 59.3958L50.9543 62.5401H51.1418C51.3293 62.7281 51.3293 62.7281 51.3293 62.9088C51.5168 63.0967 51.6971 63.2774 51.6971 63.4654C51.8846 63.6533 51.6971 63.834 51.5096 63.834C51.5096 64.022 51.5096 64.2027 51.3221 64.3906L50.399 65.6845C49.8437 66.4218 49.2884 67.1663 48.7403 68.0916C47.8173 69.3855 47.0817 70.8673 46.1587 72.3491C45.9712 72.5371 45.9712 72.7178 45.7909 72.9057C45.0553 74.1996 44.3125 76.05 43.7572 77.7199C43.0216 79.2017 42.4663 80.6836 41.911 82.3461C41.7235 82.534 41.7235 82.7147 41.7235 82.9027C41.7235 83.0834 41.536 83.0834 41.536 83.2713C41.1682 84.5652 40.8004 85.6784 40.6129 86.7842C40.4255 87.7095 40.2452 88.6347 40.0577 89.3719C39.6899 91.0417 39.5024 92.5235 39.5024 94.1861C39.1346 96.0366 39.1346 98.075 39.1346 99.9255C39.1346 101.964 39.1346 103.814 39.3221 105.665C39.5024 107.515 39.6899 109.178 40.0577 110.66C40.2452 111.216 40.2452 111.773 40.4255 112.322C40.6129 113.804 40.9807 114.91 41.3485 116.211C41.536 116.58 41.536 116.768 41.7163 117.136C42.2716 118.987 42.8269 120.469 43.5625 121.951C44.1178 123.613 44.8533 125.283 45.964 127.133C46.6995 128.427 47.4423 129.721 48.1779 131.022C49.1009 132.685 50.2116 133.986 51.3148 135.28C51.5023 135.468 51.3148 135.468 51.5023 135.649C51.6898 135.836 51.6898 136.017 51.6898 136.205C51.5023 136.567 51.3223 136.566 51.1348 136.747ZM54.8271 106.59C55.1949 106.221 55.5627 106.221 55.9377 106.221L61.6637 107.146C62.219 107.334 62.5868 107.515 62.7743 108.072C65.9112 120.468 75.3296 130.089 87.6973 133.053C88.0651 133.241 88.6204 133.61 88.6204 134.166L89.5435 139.906C89.731 140.274 89.5435 140.831 89.1757 141.019C88.8079 141.207 88.6204 141.387 88.2526 141.387H88.0651C70.8944 138.243 57.4153 124.733 54.2787 107.522C54.4589 107.327 54.4593 106.959 54.8271 106.59ZM136.614 150.444C136.426 150.625 136.426 150.813 136.246 151.001C136.058 151.001 136.058 151.001 136.058 151.189C134.58 152.483 132.921 153.596 131.443 154.521C130.888 154.89 130.332 155.258 129.784 155.634C129.597 155.822 129.416 155.822 129.416 155.822C129.416 156.01 129.229 156.01 129.229 156.01C128.861 156.364 128.493 156.552 128.118 156.733C126.085 157.846 123.871 158.952 121.469 160.065C119.991 160.622 117.965 161.359 116.118 162.104H115.751C115.751 162.292 115.563 162.292 115.563 162.292C113.717 162.848 111.503 163.585 108.914 163.954H108.734C108.546 164.142 108.366 164.142 108.366 164.142C107.998 164.33 107.811 164.33 107.443 164.33L104.674 164.691H103.75H103.563C102.452 164.879 101.162 165.06 100.058 165.06C98.7674 165.248 97.4766 165.248 95.9982 165.248C93.0414 165.248 90.4597 165.06 88.2458 164.879C86.5872 164.691 85.1088 164.511 83.6304 164.142C83.0752 163.954 82.5199 163.954 81.9646 163.766C80.4862 163.397 78.8276 163.029 77.3492 162.653C76.9814 162.465 76.7939 162.465 76.4261 162.465C76.2386 162.277 76.0583 162.277 76.0583 162.277H75.6905C73.8444 161.72 72.1858 160.983 70.3396 160.239C68.681 159.682 66.8349 158.757 65.1689 157.832C64.6137 157.463 63.8781 156.906 63.1352 156.538C62.7674 156.35 62.5799 156.169 62.2121 155.981C59.8107 154.687 57.5968 153.205 55.3829 151.355C55.1954 151.181 55.0151 150.813 55.0151 150.625V150.437C54.8276 150.068 55.0151 149.88 55.2026 149.512L58.5271 145.442C58.8949 144.886 59.818 144.886 60.3733 145.254C62.9549 147.293 65.544 149.143 68.4934 150.618C71.6304 152.28 75.1425 153.762 78.6472 154.875C78.8347 154.875 78.8347 155.063 78.8347 155.063C80.1256 155.432 81.2362 155.8 82.527 155.988C83.6376 156.176 84.3732 156.357 85.1087 156.545C86.7674 156.914 88.4333 157.101 90.0918 157.282C91.0149 157.47 92.1256 157.47 93.2288 157.47C94.1519 157.658 94.8875 157.658 95.8105 157.658C99.3152 157.658 102.827 157.47 106.152 156.733C107.262 156.545 108.366 156.364 109.476 155.995L109.844 155.808C110.955 155.439 112.246 155.251 113.169 154.694C114.827 154.138 116.306 153.581 117.972 153.032C119.63 152.475 121.296 151.738 122.955 150.625C126.279 148.962 128.861 147.112 131.075 145.261C131.263 145.073 131.443 145.261 131.443 145.073C131.63 145.073 131.811 144.886 131.998 144.886C132.186 144.886 132.366 145.073 132.553 145.073C132.741 145.261 132.921 145.261 132.921 145.261L136.246 149.331C136.433 149.7 136.614 149.888 136.433 150.256C136.801 150.256 136.614 150.256 136.614 150.444ZM103.75 141.56H103.382C103.015 141.56 102.827 141.372 102.459 141.192C102.091 140.823 101.904 140.454 102.091 140.079L103.015 134.339C103.202 133.783 103.57 133.414 104.125 133.226C116.313 130.262 125.912 120.641 129.048 108.245C129.236 107.688 129.604 107.319 130.159 107.319L135.885 106.394C136.253 106.206 136.808 106.394 136.995 106.763C137.363 107.132 137.363 107.5 137.363 107.876C134.399 124.906 120.733 138.416 103.75 141.56ZM159.323 114.917C158.955 116.211 158.587 117.693 158.213 119.356C158.025 119.543 158.025 119.724 158.025 119.912C157.657 121.206 157.102 122.5 156.547 123.801L156.554 123.982C156.186 124.907 155.999 125.644 155.443 126.569C154.888 127.863 154.152 129.533 153.229 131.196C152.306 132.858 151.383 134.528 150.273 136.01L149.537 137.123C148.614 138.236 147.878 139.342 147.136 140.455C146.768 140.824 146.58 140.824 146.025 140.824C145.657 140.824 145.47 140.824 145.102 140.636V140.448L141.042 137.304C140.854 137.116 140.854 136.935 140.854 136.747C140.667 136.559 140.667 136.559 140.667 136.379C140.479 136.191 140.854 136.01 140.854 136.01C140.854 135.822 140.854 135.641 141.042 135.453C142.152 134.159 143.076 132.866 143.623 131.752C144.734 130.09 145.657 128.608 146.393 127.314C147.684 124.907 148.794 122.688 149.53 120.281C149.717 120.093 149.717 119.912 149.717 119.724C150.64 117.317 151.376 115.098 151.751 112.51C151.938 111.954 152.119 111.397 152.119 110.848C152.674 107.516 153.042 104.003 153.042 100.114C153.042 98.2633 153.042 96.2248 152.854 94.3743C152.667 92.5239 152.486 91.042 152.119 89.5602C151.751 87.1531 151.196 84.934 150.46 82.8955V82.7076C150.092 81.0451 149.349 79.5633 148.801 78.0814V77.8935C148.801 77.7056 148.614 77.5248 148.614 77.5248C147.878 75.8623 147.323 74.5611 146.4 73.2673C146.4 73.0794 146.212 72.8986 146.212 72.7107C146.212 72.5228 146.025 72.5228 146.025 72.3421C146.025 72.3421 145.837 72.342 145.837 72.1541C144.179 69.3784 142.513 66.6027 140.667 64.3836C140.479 64.1957 140.479 64.015 140.479 63.827C140.292 63.6391 140.292 63.4584 140.292 63.4584V63.2705L140.667 62.8946C140.854 62.7067 140.854 62.5259 140.854 62.5259L144.922 59.4033C145.289 59.2154 145.477 59.0346 146.032 59.0346C146.4 59.2226 146.768 59.4033 146.955 59.5912C147.878 60.8851 148.801 62.1789 149.537 63.4802C149.905 63.8488 149.905 64.0367 150.092 64.2175L150.28 64.5861C150.46 64.7668 150.647 64.9548 150.647 65.1355C151.758 66.798 152.681 68.6484 153.604 70.3183C154.16 71.6121 154.895 73.094 155.638 74.7564C156.006 75.313 156.374 76.419 156.749 77.5321C156.936 78.0887 157.116 78.826 157.304 79.5706C157.491 79.9393 157.491 80.1272 157.672 80.3079C158.595 82.8956 159.15 85.3027 159.518 87.7098C159.705 87.8977 159.705 87.8977 159.705 88.0784C159.893 89.5602 160.261 91.0421 160.261 92.5166C160.628 94.9237 160.628 97.1427 160.628 100.106C160.628 103.807 160.261 107.508 159.705 111.021C159.878 112.322 159.503 113.616 159.323 114.917ZM104.494 106.59L133.665 101.227L99.1366 101.22L104.494 106.59ZM94.7081 137.673V110.104V109.916V103.071L89.3572 108.434L94.7081 137.673ZM87.5038 93.4501L58.521 98.6329H92.8632L87.5038 93.4501ZM97.2899 62.1809V96.7828L102.461 91.4122L97.2899 62.1809Z" fill="#C4B896"/>
</svg>
